<svg xmlns="http://www.w3.org/2000/svg" xmlns:xlink="http://www.w3.org/1999/xlink" version="1.1" id="Layer_1" x="0px" y="0px" viewBox="0 0 1041 429.04" style="enable-background:new 0 0 1041 429.04;" xml:space="preserve">
  <style type="text/css">
    .st0{fill:#F8975B;}
    .st1{fill:#EE0200;}
  </style>
  <g>
    <g>
      <ellipse class="st0" cx="197.28" cy="385.59" rx="31.56" ry="26.38"/>
      <g>
        <path class="st0" d="M86.75,268.5c0,0,9.66,13.11,9.66,33.8l30.69,75.18l32.76-79.67l21.73,0.34l-23.45,57.25     c0,0,29.66-29.31,71.73-4.14c0,0,4.48-26.56-14.83-33.11s-33.45,0.34-33.45,0.34l9.66-21.38c0,0,52.42-3.1,57.59,35.87v93.46     h25.52V287.81l-20.69-18.97h-46.9c0,0,2.41,11.73,11.73,24.14c0,0-17.93-4.83-32.42-24.14     C186.07,268.85,86.75,268.85,86.75,268.5z"/>
        <path class="st0" d="M147.45,378.17l-19.66,49.32h46.56C174.35,427.49,146.76,418.52,147.45,378.17z"/>
        <path class="st0" d="M87.79,337.82l38.28,89.67h-24.49C101.58,427.49,58.13,394.04,87.79,337.82z"/>
        <path class="st0" d="M212.97,426.8h17.07v-11.21C230.05,415.59,225.39,422.66,212.97,426.8z"/>
      </g>
    </g>
    <g>
      <path class="st1" d="M613.12,322.6c-4.55-14.49-13.08-27.25-24.3-37.08c4.65-4.93,11.62-14.5,10.58-26.86    c0.01-0.14,0.02-0.27,0.02-0.41c0-6.26-5.45-11.33-12.18-11.33s-12.18,5.07-12.18,11.33s5.45,11.33,12.18,11.33    c0,0,3.87,5.26,0.11,14.69c-14.5-12.11-33.24-19.43-53.73-19.43c-40.87,0-74.84,29.08-81.86,67.42v-63.44h-32.43v62.28h-59.91    v-34.12v-3.3v-24.77H230.57v28.07h33.15v129.21h34.29V296.98h29v129.21h32.43v-69.72h59.91v69.72h32.43v-64.57    c7.02,38.33,40.98,67.42,81.86,67.42c37.36,0,68.97-24.3,79.49-57.75v54.9h33.15V269.58h-33.15L613.12,322.6L613.12,322.6z     M533.63,398.86c-28.67,0-51.92-23.25-51.92-51.92s23.25-51.92,51.92-51.92s51.92,23.25,51.92,51.92    C585.55,375.62,562.31,398.86,533.63,398.86z"/>
      <path class="st1" d="M322.23,23.68L312.76,0c0,0-29.43,27.06-30.78,65.62C281.98,65.62,298.22,32.81,322.23,23.68z"/>
      <path class="st1" d="M335.09,172.17c-20.97-28.75-50.06-5.75-50.06-5.75l26.05-73.4l52.09,140.03h42.62l-13.29-32.79    c18.55,23.39,47.36,38.48,79.8,38.48c55.98,0,101.37-44.78,101.37-100.01c0-55.24-45.38-100.01-101.37-100.01    c-55.98,0-101.37,44.78-101.37,100.01c0,3.21,0.19,6.38,0.49,9.52L326.97,38.56c-35.52,13.87-49.05,51.07-49.05,51.07    l-54.8,133.35V43.3h-39.57v89.3h-38.32h-44.99v29.77h43.3c0,0-2.37,43.29-46.34,43.29s-69.34-52.43-51.75-96.74    s75.43-49.05,98.77-7.78l33.49-16.91c0,0-19.62-48.71-80.84-46.34s-95.05,46-96.74,89.97c-1.69,43.97,12.18,120.53,121.43,107.9    c45.84-5.3,60.05-56.3,62-64.24v60.52h35.85h3.72h38.9C288.07,172.17,335.09,172.17,335.09,172.17z M472.3,75.48    c34.93,0,63.25,28.32,63.25,63.25s-28.32,63.25-63.25,63.25s-63.25-28.32-63.25-63.25C409.04,103.8,437.36,75.48,472.3,75.48z"/>
      <path class="st1" d="M997.93,75.48c16.65,0,31.78,6.44,43.07,16.95V48.18c-13.07-6.06-27.67-9.46-43.07-9.46    c-47.12,0-86.61,31.77-97.97,74.74V43.97h-40.59V153.9c0,0,4.06,52.09-33.49,52.09s-36.53-43.29-36.53-59.87    c0-16.57,0-102.49,0-102.49s-40.25,0-40.59,0v64.88c-11.92-36.63-44.68-62.48-78.13-64.54c0,0-72.72-0.34-72.38,0v189.08h65.96    c0,0,65.97-1.39,84.93-65.43c1.74,19,12.1,72.73,73.7,70.5c74.75-2.71,75.43-53.44,77.12-67.31V164    c11.36,42.98,50.86,74.74,97.97,74.74c15.4,0,30-3.4,43.07-9.46v-44.25c-11.29,10.51-26.43,16.95-43.07,16.95    c-34.93,0-63.25-28.32-63.25-63.25S962.99,75.48,997.93,75.48z M711.89,153.56c-5.07,51.75-73.06,47.69-73.06,47.69V75.43    C694.98,74.41,716.96,101.81,711.89,153.56z"/>
      <path class="st1" d="M846.42,245.73h-42.45c3.06,9.64,11.4,16.57,21.22,16.57C835.03,262.31,843.36,255.38,846.42,245.73z"/>
      <path class="st1" d="M934.79,418.67l-60.54-153.15c-30.78,8.79-40.59,39.91-40.59,39.91l-21.83,53.31    c2.34-18.16-1.72-37.51-12.33-55c-23.34-38.48-92-34.16-92-34.16h-22.66v63.25h-9.81v28.41h9.81v64.94h33.15    c0,0,37.21-1.69,50.74-8.46c11.91-5.95,21.38-13.93,28.44-23.19l-12.54,30.63c-0.34-0.34,35.18,0,35.18,0    c24.35-51.07,59.53-50.4,59.53-50.4c-18.27-20.29-39.91-4.74-39.91-4.74l20.29-58.85l43.3,114.33h31.79v0.68h33.15v-156.6h-33.15    v149.09H934.79z M778.18,354.14c-1.69,46-50.06,45.32-50.06,45.32h-10.15v-38.22h24.69v-28.41h-24.69v-37.21    c3.68,0,8.46,0,14.54,0C751.12,295.63,779.88,308.14,778.18,354.14z"/>
      <path class="st1" d="M861.22,408.6c-9.83,0-18.16,6.93-21.22,16.57h42.45C879.39,415.53,871.05,408.6,861.22,408.6z"/>
      <path class="st1" d="M527.04,233.05c13.7,22.32,42.11,32.47,42.11,32.47c-10.15-9.13-15.22-32.47-15.22-32.47H527.04z"/>
    </g>
  </g>
  </svg>